<svg t="1763314745907" class="icon" viewBox="0 0 1024 1024" version="1.1" xmlns="http://www.w3.org/2000/svg" p-id="7139" width="200" height="200"><path d="M0 0h1024v1024H0z" fill="#FFFFFF" fill-opacity="0" p-id="7140"></path><path d="M631.466667 631.466667m-358.4 0a358.4 358.4 0 1 0 716.8 0 358.4 358.4 0 1 0-716.8 0Z" fill="#00C5FF" fill-opacity=".1" p-id="7141"></path><path d="M204.8 136.533333v136.533334h68.266667V136.533333zM204.8 443.733333v136.533334h68.266667V443.733333zM204.8 785.066667v136.533333h68.266667v-136.533333zM409.6 273.066667h529.066667V204.8H409.6z" fill="#1F5EED" p-id="7142"></path><path d="M409.6 443.733333h290.133333V375.466667H409.6z" fill="#628EF2" p-id="7143"></path><path d="M409.6 614.4h529.066667v-68.266667H409.6z" fill="#1F5EED" p-id="7144"></path><path d="M409.6 785.066667h324.266667v-68.266667H409.6z" fill="#628EF2" p-id="7145"></path><path d="M102.4 204.8h273.066667v273.066667H102.4V204.8z m68.266667 68.266667v136.533333h136.533333V273.066667H170.666667zM102.4 546.133333h273.066667v273.066667H102.4v-273.066667z m68.266667 68.266667v136.533333h136.533333v-136.533333H170.666667z" fill="#1F5EED" p-id="7146"></path></svg>